<svg xmlns="http://www.w3.org/2000/svg" width="1500" height="1900" viewBox="0 0 1500 1900" role="img" aria-label="Annotated top down Zuzu pinball playfield engineering mockup, showing seven major shots, three ramps, two orbits, raised dual flipper deck, lower flippers, hidden subtable and shooter lane">
<defs>
<linearGradient id="bg" x2=".2" y2="1"><stop stop-color="#0b1525"/><stop offset="1" stop-color="#1f222e"/></linearGradient>
<linearGradient id="floor" x2=".8" y2="1"><stop stop-color="#20323b"/><stop offset=".42" stop-color="#432f32"/><stop offset="1" stop-color="#12222c"/></linearGradient>
<linearGradient id="steel" x2="1" y2="1"><stop stop-color="#667680"/><stop offset=".23" stop-color="#fce9cd"/><stop offset=".49" stop-color="#627781"/><stop offset=".73" stop-color="#cfdfdb"/><stop offset="1" stop-color="#455663"/></linearGradient>
<linearGradient id="wood" x2="1" y2="1"><stop stop-color="#653d37"/><stop offset=".5" stop-color="#28232e"/><stop offset="1" stop-color="#a0644b"/></linearGradient>
<radialGradient id="ball"><stop stop-color="#ffffff" offset="0"/><stop stop-color="#d9e2e0" offset=".24"/><stop stop-color="#70838b" offset=".72"/><stop stop-color="#222934" offset="1"/></radialGradient>
<pattern id="grain" width="36" height="36" patternUnits="userSpaceOnUse"><path d="M0 35L35 0" stroke="#f5d1a3" stroke-opacity=".045" stroke-width="2"/></pattern>
<filter id="drop"><feDropShadow dx="4" dy="12" stdDeviation="10" flood-color="#030811" flood-opacity=".8"/></filter>
<filter id="glow"><feGaussianBlur stdDeviation="5" result="b"/><feMerge><feMergeNode in="b"/><feMergeNode in="SourceGraphic"/></feMerge></filter>
<marker id="arrow" viewBox="0 0 12 12" refX="8" refY="6" markerWidth="8" markerHeight="8" orient="auto"><path d="M0 1L10 6 0 11Z" fill="#f7d38e"/></marker>
</defs>
<rect width="1500" height="1900" fill="url(#bg)"/>
<text x="38" y="68" font-family="Georgia,serif" font-size="54" fill="#f9e5bd" font-weight="bold">ZUZU: THE LAST BELL</text>
<text x="39" y="113" font-family="sans-serif" font-size="23" letter-spacing="5" fill="#d0a77d">PHYSICAL PLAYFIELD • CONCEPT ENGINEERING DRAWING</text>
<rect x="382" y="167" width="744" height="1562" rx="74" fill="#050a10" stroke="#bb9f7a" stroke-width="24" filter="url(#drop)"/>
<rect x="403" y="185" width="704" height="1513" rx="58" fill="#19202d" stroke="url(#steel)" stroke-width="13"/>
<rect x="428" y="250" width="649" height="1400" rx="100" fill="url(#floor)" stroke="#b77e58" stroke-width="6"/>
<rect x="428" y="250" width="649" height="1400" rx="100" fill="url(#grain)"/>
<!-- topper DMD and lamps -->
<rect x="443" y="190" width="624" height="115" rx="23" fill="#111321" stroke="#f5d39a" stroke-width="6"/>
<rect x="475" y="212" width="555" height="72" rx="10" fill="#201d23" stroke="#8a602e" stroke-width="4"/>
<text x="507" y="253" font-family="monospace" font-size="27" fill="#ffb961" letter-spacing="2">THE BELL TOLLS • BALL 2</text>
<path d="M499 268h486" stroke="#b26e36" stroke-dasharray="2 8" stroke-width="7" opacity=".65"/>
<circle cx="438" cy="344" r="8" fill="#ffb36c" filter="url(#glow)"/><circle cx="1085" cy="344" r="8" fill="#65f2cf" filter="url(#glow)"/><circle cx="438" cy="491" r="8" fill="#65f2cf" filter="url(#glow)"/><circle cx="1085" cy="491" r="8" fill="#ffb36c" filter="url(#glow)"/><circle cx="438" cy="638" r="8" fill="#65f2cf" filter="url(#glow)"/><circle cx="1085" cy="638" r="8" fill="#65f2cf" filter="url(#glow)"/><circle cx="438" cy="785" r="8" fill="#ffb36c" filter="url(#glow)"/><circle cx="1085" cy="785" r="8" fill="#65f2cf" filter="url(#glow)"/><circle cx="438" cy="932" r="8" fill="#65f2cf" filter="url(#glow)"/><circle cx="1085" cy="932" r="8" fill="#ffb36c" filter="url(#glow)"/><circle cx="438" cy="1079" r="8" fill="#65f2cf" filter="url(#glow)"/><circle cx="1085" cy="1079" r="8" fill="#65f2cf" filter="url(#glow)"/><circle cx="438" cy="1226" r="8" fill="#ffb36c" filter="url(#glow)"/><circle cx="1085" cy="1226" r="8" fill="#65f2cf" filter="url(#glow)"/><circle cx="438" cy="1373" r="8" fill="#65f2cf" filter="url(#glow)"/><circle cx="1085" cy="1373" r="8" fill="#ffb36c" filter="url(#glow)"/><circle cx="438" cy="1520" r="8" fill="#65f2cf" filter="url(#glow)"/><circle cx="1085" cy="1520" r="8" fill="#65f2cf" filter="url(#glow)"/><circle cx="415" cy="250" r="4" fill="#c9c6b9"/><circle cx="1115" cy="250" r="4" fill="#c9c6b9"/><circle cx="415" cy="371" r="4" fill="#c9c6b9"/><circle cx="1115" cy="371" r="4" fill="#c9c6b9"/><circle cx="415" cy="492" r="4" fill="#c9c6b9"/><circle cx="1115" cy="492" r="4" fill="#c9c6b9"/><circle cx="415" cy="613" r="4" fill="#c9c6b9"/><circle cx="1115" cy="613" r="4" fill="#c9c6b9"/><circle cx="415" cy="734" r="4" fill="#c9c6b9"/><circle cx="1115" cy="734" r="4" fill="#c9c6b9"/><circle cx="415" cy="855" r="4" fill="#c9c6b9"/><circle cx="1115" cy="855" r="4" fill="#c9c6b9"/><circle cx="415" cy="976" r="4" fill="#c9c6b9"/><circle cx="1115" cy="976" r="4" fill="#c9c6b9"/><circle cx="415" cy="1097" r="4" fill="#c9c6b9"/><circle cx="1115" cy="1097" r="4" fill="#c9c6b9"/><circle cx="415" cy="1218" r="4" fill="#c9c6b9"/><circle cx="1115" cy="1218" r="4" fill="#c9c6b9"/><circle cx="415" cy="1339" r="4" fill="#c9c6b9"/><circle cx="1115" cy="1339" r="4" fill="#c9c6b9"/><circle cx="415" cy="1460" r="4" fill="#c9c6b9"/><circle cx="1115" cy="1460" r="4" fill="#c9c6b9"/><circle cx="415" cy="1581" r="4" fill="#c9c6b9"/>
<!-- left and right outside orbits physically routed to rear -->
<path d="M574 1423C500 1327 478 1116 487 823S481 348 601 318" fill="none" stroke="#17202a" stroke-width="40"/>
<path d="M574 1423C500 1327 478 1116 487 823S481 348 601 318" fill="none" stroke="url(#steel)" stroke-width="15"/>
<path d="M954 1400C1021 1293 1031 986 1017 737S1044 356 908 319" fill="none" stroke="#17202a" stroke-width="40"/>
<path d="M954 1400C1021 1293 1031 986 1017 737S1044 356 908 319" fill="none" stroke="url(#steel)" stroke-width="15"/>
<!-- raised monastery mini table  -->
<g filter="url(#drop)">
<path d="M606 353Q616 331 652 330H886Q914 330 923 356L943 652Q778 698 578 651Z" fill="#573732" stroke="url(#steel)" stroke-width="13"/>
<path d="M618 360H894L915 630Q770 676 606 633Z" fill="#2d2931" stroke="#e6b771" stroke-width="4"/>
<path d="M645 381Q770 363 864 379" stroke="#dca96d" stroke-width="7" fill="none"/>
<path d="M765 378v265" stroke="#d5ab79" stroke-width="3" opacity=".4"/>
<circle cx="761" cy="467" r="67" fill="#272b35" stroke="#caa77b" stroke-width="8"/>
<circle cx="761" cy="467" r="42" fill="#e7bf80" opacity=".14"/>
<path d="M735 482q26 16 52-1M749 443h26M740 513h44" stroke="#e3b97b" stroke-width="7" fill="none"/>
<text x="761" y="418" font-family="Georgia,serif" font-size="22" fill="#f8d79d" text-anchor="middle">THE ABBEY</text>
<!-- dual upper flippers -->
<path d="M653 583L744 620" stroke="#f5ca93" stroke-width="18" stroke-linecap="round"/><circle cx="649" cy="581" r="15" fill="#d67757" stroke="url(#steel)" stroke-width="6"/>
<path d="M870 583L782 620" stroke="#f5ca93" stroke-width="18" stroke-linecap="round"/><circle cx="873" cy="581" r="15" fill="#d67757" stroke="url(#steel)" stroke-width="6"/>
</g>
<!-- left village ramp, elevated and curved, with shadow -->
<path d="M575 1230C535 1024 559 884 626 811S681 703 631 667" stroke="#020a10" stroke-width="37" fill="none" opacity=".65"/>
<path d="M575 1230C535 1024 559 884 626 811S681 703 631 667" stroke="#5c5d61" stroke-width="30" fill="none"/>
<path d="M575 1230C535 1024 559 884 626 811S681 703 631 667" stroke="#eca55b" stroke-width="13" fill="none" filter="url(#glow)"/>
<!-- right Abbey rail crosses to left return -->
<path d="M968 1177C1027 972 1014 767 908 714S795 756 702 784S625 855 583 960" stroke="#01080e" stroke-width="40" fill="none" opacity=".74"/>
<path d="M968 1177C1027 972 1014 767 908 714S795 756 702 784S625 855 583 960" stroke="url(#steel)" stroke-width="25" fill="none"/>
<path d="M968 1177C1027 972 1014 767 908 714S795 756 702 784S625 855 583 960" stroke="#6ddbcf" stroke-width="8" fill="none" filter="url(#glow)"/>
<!-- monastery central corkscrew entry and stairs -->
<path d="M759 1057C714 1018 695 958 737 908S838 864 829 818S724 782 740 720" fill="none" stroke="#05111a" stroke-width="53"/>
<path d="M759 1057C714 1018 695 958 737 908S838 864 829 818S724 782 740 720" fill="none" stroke="#aca497" stroke-width="34"/>
<path d="M759 1057C714 1018 695 958 737 908S838 864 829 818S724 782 740 720" fill="none" stroke="#f5d88e" stroke-width="12" filter="url(#glow)"/>
<!-- bumpers -->
<g><circle cx="687" cy="1090" r="42" fill="#0b1822" stroke="url(#steel)" stroke-width="13"/><circle cx="687" cy="1090" r="27" fill="#438e8b" stroke="#ffdaa6" stroke-width="4"/><circle cx="687" cy="1090" r="12" fill="#f3ca87" filter="url(#glow)"/></g><g><circle cx="823" cy="1090" r="42" fill="#0b1822" stroke="url(#steel)" stroke-width="13"/><circle cx="823" cy="1090" r="27" fill="#8a4345" stroke="#ffdaa6" stroke-width="4"/><circle cx="823" cy="1090" r="12" fill="#f3ca87" filter="url(#glow)"/></g><g><circle cx="757" cy="1179" r="42" fill="#0b1822" stroke="url(#steel)" stroke-width="13"/><circle cx="757" cy="1179" r="27" fill="#438e8b" stroke="#ffdaa6" stroke-width="4"/><circle cx="757" cy="1179" r="12" fill="#f3ca87" filter="url(#glow)"/></g>
<!-- drops and spinner -->
<g transform="translate(855 972) rotate(-18)"><rect width="23" height="48" rx="3" fill="#c58d68" stroke="#271d22" stroke-width="4"/><text x="12" y="31" text-anchor="middle" font-family="serif" font-size="18" fill="#fff1d8">1</text></g><g transform="translate(883 966) rotate(-18)"><rect width="23" height="48" rx="3" fill="#c58d68" stroke="#271d22" stroke-width="4"/><text x="12" y="31" text-anchor="middle" font-family="serif" font-size="18" fill="#fff1d8">2</text></g><g transform="translate(911 960) rotate(-18)"><rect width="23" height="48" rx="3" fill="#c58d68" stroke="#271d22" stroke-width="4"/><text x="12" y="31" text-anchor="middle" font-family="serif" font-size="18" fill="#fff1d8">3</text></g><g transform="translate(939 954) rotate(-18)"><rect width="23" height="48" rx="3" fill="#c58d68" stroke="#271d22" stroke-width="4"/><text x="12" y="31" text-anchor="middle" font-family="serif" font-size="18" fill="#fff1d8">4</text></g>
<rect x="544" y="967" width="70" height="13" rx="4" fill="url(#steel)" transform="rotate(-24 544 967)"/>
<circle cx="607" cy="967" r="13" fill="#d8c4a8"/>
<!-- relic captive ball -->
<rect x="865" y="819" width="78" height="98" rx="30" fill="#101824" stroke="url(#steel)" stroke-width="8"/>
<circle cx="902" cy="863" r="22" fill="url(#ball)"/><path d="M902 828v-24" stroke="#d4a66e" stroke-width="7"/>
<!-- left and right scoops -->
<ellipse cx="571" cy="800" rx="42" ry="26" fill="#080d18" stroke="#e0bb76" stroke-width="9"/>
<ellipse cx="944" cy="797" rx="39" ry="25" fill="#070d16" stroke="#d7b57f" stroke-width="9"/>
<!-- undercrypt physical trapdoor, deck not superimposed -->
<g><rect x="652" y="1234" width="223" height="94" rx="10" fill="#151827" stroke="#c99d6c" stroke-width="8"/><path d="M665 1248 861 1312M860 1247 665 1310" stroke="#8b6656" stroke-width="8"/><text x="761" y="1274" fill="#f1c58b" font-family="sans-serif" font-size="19" text-anchor="middle">CRYPT GATE</text><text x="761" y="1300" fill="#f1c58b" font-family="sans-serif" font-size="17" text-anchor="middle">TO HIDDEN TABLE</text></g>
<!-- lower sling and inlanes -->
<path d="M522 1353 637 1351 605 1451Z" fill="#943e3e" stroke="#e3b777" stroke-width="10"/><path d="M992 1353 884 1353 916 1451Z" fill="#943e3e" stroke="#e3b777" stroke-width="10"/>
<path d="M520 1442 548 1560M995 1442 965 1560" stroke="#d3b587" stroke-width="9"/>
<!-- lower flippers -->
<g filter="url(#drop)"><path d="M594 1565L746 1615" stroke="#f7d6a9" stroke-width="27" stroke-linecap="round"/><circle cx="586" cy="1561" r="22" fill="#a73e43" stroke="url(#steel)" stroke-width="8"/>
<path d="M924 1565L774 1615" stroke="#f7d6a9" stroke-width="27" stroke-linecap="round"/><circle cx="931" cy="1561" r="22" fill="#a73e43" stroke="url(#steel)" stroke-width="8"/></g>
<path d="M753 1620V1652" stroke="#0b121d" stroke-width="23"/><ellipse cx="758" cy="1615" rx="23" ry="16" fill="url(#ball)"/>
<!-- lane / plunger -->
<path d="M1052 1574V669Q1055 510 1018 359" stroke="#b7b8ad" stroke-width="17" fill="none"/>
<rect x="1038" y="1460" width="28" height="139" rx="12" fill="#56606b" stroke="#e9c69c" stroke-width="6"/>
<circle cx="1052" cy="1597" r="24" fill="#a34945" stroke="#f6d9b2" stroke-width="5"/>
<circle cx="1052" cy="747" r="16" fill="url(#ball)"/>
<!-- insert arrows -->
<path d="M550 1111l-19 27h12v24h14v-24h12Z" fill="#efb768" opacity=".9" filter="url(#glow)"/><path d="M961 1064l-19 27h12v24h14v-24h12Z" fill="#59cbbb" opacity=".9" filter="url(#glow)"/><path d="M762 1038l-19 27h12v24h14v-24h12Z" fill="#efb768" opacity=".9" filter="url(#glow)"/><path d="M558 762l-19 27h12v24h14v-24h12Z" fill="#59cbbb" opacity=".9" filter="url(#glow)"/><path d="M943 773l-19 27h12v24h14v-24h12Z" fill="#efb768" opacity=".9" filter="url(#glow)"/><path d="M690 704l-19 27h12v24h14v-24h12Z" fill="#59cbbb" opacity=".9" filter="url(#glow)"/><path d="M840 703l-19 27h12v24h14v-24h12Z" fill="#efb768" opacity=".9" filter="url(#glow)"/>
<g><circle cx="519" cy="705" r="24" fill="#101a25" stroke="#f9cb86" stroke-width="4"/><text x="519" y="713" fill="#ffe2ad" font-size="23" text-anchor="middle" font-weight="bold">1</text></g><g><circle cx="561" cy="1195" r="24" fill="#101a25" stroke="#f9cb86" stroke-width="4"/><text x="561" y="1203" fill="#ffe2ad" font-size="23" text-anchor="middle" font-weight="bold">2</text></g><g><circle cx="760" cy="989" r="24" fill="#101a25" stroke="#f9cb86" stroke-width="4"/><text x="760" y="997" fill="#ffe2ad" font-size="23" text-anchor="middle" font-weight="bold">3</text></g><g><circle cx="973" cy="1142" r="24" fill="#101a25" stroke="#f9cb86" stroke-width="4"/><text x="973" y="1150" fill="#ffe2ad" font-size="23" text-anchor="middle" font-weight="bold">4</text></g><g><circle cx="997" cy="657" r="24" fill="#101a25" stroke="#f9cb86" stroke-width="4"/><text x="997" y="665" fill="#ffe2ad" font-size="23" text-anchor="middle" font-weight="bold">5</text></g><g><circle cx="882" cy="730" r="24" fill="#101a25" stroke="#f9cb86" stroke-width="4"/><text x="882" y="738" fill="#ffe2ad" font-size="23" text-anchor="middle" font-weight="bold">6</text></g><g><circle cx="575" cy="845" r="24" fill="#101a25" stroke="#f9cb86" stroke-width="4"/><text x="575" y="853" fill="#ffe2ad" font-size="23" text-anchor="middle" font-weight="bold">7</text></g><g><circle cx="894" cy="942" r="24" fill="#101a25" stroke="#f9cb86" stroke-width="4"/><text x="894" y="950" fill="#ffe2ad" font-size="23" text-anchor="middle" font-weight="bold">8</text></g><g><circle cx="909" cy="865" r="24" fill="#101a25" stroke="#f9cb86" stroke-width="4"/><text x="909" y="873" fill="#ffe2ad" font-size="23" text-anchor="middle" font-weight="bold">9</text></g><g><circle cx="769" cy="541" r="24" fill="#101a25" stroke="#f9cb86" stroke-width="4"/><text x="769" y="549" fill="#ffe2ad" font-size="23" text-anchor="middle" font-weight="bold">10</text></g><g><circle cx="757" cy="1518" r="24" fill="#101a25" stroke="#f9cb86" stroke-width="4"/><text x="757" y="1526" fill="#ffe2ad" font-size="23" text-anchor="middle" font-weight="bold">11</text></g><g><circle cx="601" cy="1388" r="24" fill="#101a25" stroke="#f9cb86" stroke-width="4"/><text x="601" y="1396" fill="#ffe2ad" font-size="23" text-anchor="middle" font-weight="bold">12</text></g><g><circle cx="1042" cy="1431" r="24" fill="#101a25" stroke="#f9cb86" stroke-width="4"/><text x="1042" y="1439" fill="#ffe2ad" font-size="23" text-anchor="middle" font-weight="bold">13</text></g><g><circle cx="757" cy="1220" r="24" fill="#101a25" stroke="#f9cb86" stroke-width="4"/><text x="757" y="1228" fill="#ffe2ad" font-size="23" text-anchor="middle" font-weight="bold">14</text></g>
<!-- scenic emboss -->
<text x="753" y="1394" fill="#e0b78a" opacity=".25" font-family="Georgia,serif" font-size="44" text-anchor="middle">THE LAST BELL</text>
<g transform="translate(24 320)"><rect width="341" height="151" rx="15" fill="#1a2632" stroke="#52606a"/><text x="20" y="43" font-family="sans-serif" fill="#ffd4a0" font-size="28" font-weight="bold">01</text><text x="66" y="42" font-family="sans-serif" fill="#f5e4c8" font-size="20" font-weight="bold">LEFT ORBIT</text><text x="22" y="80" font-family="sans-serif" fill="#a6b9b8" font-size="16">Fast feed; spinner + sword combos</text></g><g transform="translate(24 498)"><rect width="341" height="151" rx="15" fill="#1a2632" stroke="#52606a"/><text x="20" y="43" font-family="sans-serif" fill="#ffd4a0" font-size="28" font-weight="bold">02</text><text x="66" y="42" font-family="sans-serif" fill="#f5e4c8" font-size="20" font-weight="bold">VILLAGE RAMP</text><text x="22" y="80" font-family="sans-serif" fill="#a6b9b8" font-size="16">Elevated copper switchback; returns </text><text x="22" y="104" font-family="sans-serif" fill="#a6b9b8" font-size="16">right</text></g><g transform="translate(24 676)"><rect width="341" height="151" rx="15" fill="#1a2632" stroke="#52606a"/><text x="20" y="43" font-family="sans-serif" fill="#ffd4a0" font-size="28" font-weight="bold">03</text><text x="66" y="42" font-family="sans-serif" fill="#f5e4c8" font-size="20" font-weight="bold">BELL SPIRAL</text><text x="22" y="80" font-family="sans-serif" fill="#a6b9b8" font-size="16">Center loop to monastery upper deck</text></g><g transform="translate(24 854)"><rect width="341" height="151" rx="15" fill="#1a2632" stroke="#52606a"/><text x="20" y="43" font-family="sans-serif" fill="#ffd4a0" font-size="28" font-weight="bold">04</text><text x="66" y="42" font-family="sans-serif" fill="#f5e4c8" font-size="20" font-weight="bold">ABBEY RAMP</text><text x="22" y="80" font-family="sans-serif" fill="#a6b9b8" font-size="16">Right crossover rail; returns left</text></g><g transform="translate(24 1032)"><rect width="341" height="151" rx="15" fill="#1a2632" stroke="#52606a"/><text x="20" y="43" font-family="sans-serif" fill="#ffd4a0" font-size="28" font-weight="bold">05</text><text x="66" y="42" font-family="sans-serif" fill="#f5e4c8" font-size="20" font-weight="bold">RIGHT ORBIT</text><text x="22" y="80" font-family="sans-serif" fill="#a6b9b8" font-size="16">High-speed loop; unlocks storm mode</text></g><g transform="translate(24 1210)"><rect width="341" height="151" rx="15" fill="#1a2632" stroke="#52606a"/><text x="20" y="43" font-family="sans-serif" fill="#ffd4a0" font-size="28" font-weight="bold">06</text><text x="66" y="42" font-family="sans-serif" fill="#f5e4c8" font-size="20" font-weight="bold">LOCK / CITADEL</text><text x="22" y="80" font-family="sans-serif" fill="#a6b9b8" font-size="16">3 physical / virtual balls; 3-ball m</text><text x="22" y="104" font-family="sans-serif" fill="#a6b9b8" font-size="16">ultiball</text></g><g transform="translate(24 1388)"><rect width="341" height="151" rx="15" fill="#1a2632" stroke="#52606a"/><text x="20" y="43" font-family="sans-serif" fill="#ffd4a0" font-size="28" font-weight="bold">07</text><text x="66" y="42" font-family="sans-serif" fill="#f5e4c8" font-size="20" font-weight="bold">MORTUARY SCOOP</text><text x="22" y="80" font-family="sans-serif" fill="#a6b9b8" font-size="16">Story mode selector; ball hold</text></g><g transform="translate(1135 320)"><rect width="340" height="151" rx="15" fill="#1a2632" stroke="#52606a"/><text x="19" y="43" font-family="sans-serif" fill="#ffd4a0" font-size="28" font-weight="bold">08</text><text x="65" y="42" font-family="sans-serif" fill="#f5e4c8" font-size="20" font-weight="bold">CROW DROP BANK</text><text x="22" y="80" font-family="sans-serif" fill="#a6b9b8" font-size="16">Four targets; qualify storm witch</text></g><g transform="translate(1135 498)"><rect width="340" height="151" rx="15" fill="#1a2632" stroke="#52606a"/><text x="19" y="43" font-family="sans-serif" fill="#ffd4a0" font-size="28" font-weight="bold">09</text><text x="65" y="42" font-family="sans-serif" fill="#f5e4c8" font-size="20" font-weight="bold">CAPTIVE RELIC</text><text x="22" y="80" font-family="sans-serif" fill="#a6b9b8" font-size="16">Energy meter / ancient-human mystery</text></g><g transform="translate(1135 676)"><rect width="340" height="151" rx="15" fill="#1a2632" stroke="#52606a"/><text x="19" y="43" font-family="sans-serif" fill="#ffd4a0" font-size="28" font-weight="bold">10</text><text x="65" y="42" font-family="sans-serif" fill="#f5e4c8" font-size="20" font-weight="bold">UPPER FLIPPERS</text><text x="22" y="80" font-family="sans-serif" fill="#a6b9b8" font-size="16">Independent dual-control mini playfi</text><text x="22" y="104" font-family="sans-serif" fill="#a6b9b8" font-size="16">eld</text></g><g transform="translate(1135 854)"><rect width="340" height="151" rx="15" fill="#1a2632" stroke="#52606a"/><text x="19" y="43" font-family="sans-serif" fill="#ffd4a0" font-size="28" font-weight="bold">11</text><text x="65" y="42" font-family="sans-serif" fill="#f5e4c8" font-size="20" font-weight="bold">LOWER FLIPPERS</text><text x="22" y="80" font-family="sans-serif" fill="#a6b9b8" font-size="16">Cradle, live catch, post-pass</text></g><g transform="translate(1135 1032)"><rect width="340" height="151" rx="15" fill="#1a2632" stroke="#52606a"/><text x="19" y="43" font-family="sans-serif" fill="#ffd4a0" font-size="28" font-weight="bold">12</text><text x="65" y="42" font-family="sans-serif" fill="#f5e4c8" font-size="20" font-weight="bold">SLINGSHOTS</text><text x="22" y="80" font-family="sans-serif" fill="#a6b9b8" font-size="16">Elastic rebounds and fair outlanes</text></g><g transform="translate(1135 1210)"><rect width="340" height="151" rx="15" fill="#1a2632" stroke="#52606a"/><text x="19" y="43" font-family="sans-serif" fill="#ffd4a0" font-size="28" font-weight="bold">13</text><text x="65" y="42" font-family="sans-serif" fill="#f5e4c8" font-size="20" font-weight="bold">SKILL PLUNGE</text><text x="22" y="80" font-family="sans-serif" fill="#a6b9b8" font-size="16">Manual launch with three award zones</text></g><g transform="translate(1135 1388)"><rect width="340" height="151" rx="15" fill="#1a2632" stroke="#52606a"/><text x="19" y="43" font-family="sans-serif" fill="#ffd4a0" font-size="28" font-weight="bold">14</text><text x="65" y="42" font-family="sans-serif" fill="#f5e4c8" font-size="20" font-weight="bold">UNDERCRYPT</text><text x="22" y="80" font-family="sans-serif" fill="#a6b9b8" font-size="16">Hidden subtable reached by trapdoor</text></g>
<!-- layout key -->
<path d="M428 1749h654" stroke="#bfa783" stroke-width="3"/>
<text x="432" y="1789" fill="#f0cf9e" font-size="23" font-family="sans-serif">3 RAMPS  •  2 ORBITS  •  4 FLIPPERS  •  3-BALL LOCK</text>
<text x="432" y="1821" fill="#acb7bd" font-size="18" font-family="sans-serif">Dashed dimensions omitted • layout subject to collision/pathfinding tests</text>
<text x="432" y="1853" fill="#acb7bd" font-size="18" font-family="sans-serif">Conceptual shot and mechanism map, NOT verified physical geometry</text>
</svg>